<?xml version="1.0" encoding="us-ascii" standalone="no"?><svg xmlns="http://www.w3.org/2000/svg" xmlns:xlink="http://www.w3.org/1999/xlink" contentStyleType="text/css" height="789px" preserveAspectRatio="none" style="width:506px;height:789px;background:#FFFFFF;" version="1.1" viewBox="0 0 506 789" width="506px" zoomAndPan="magnify"><defs/><g><!--entity Owner--><g id="elem_Owner"><ellipse cx="57" cy="164.5" fill="#F1F1F1" rx="8" ry="8" style="stroke:#181818;stroke-width:0.5;"/><path d="M57,172.5 L57,199.5 M44,180.5 L70,180.5 M57,199.5 L44,214.5 M57,199.5 L70,214.5 " fill="none" style="stroke:#181818;stroke-width:0.5;"/><text fill="#000000" font-family="sans-serif" font-size="14" lengthAdjust="spacing" textLength="102" x="6" y="228.9951">Owner (Admin)</text></g><!--entity Teller--><g id="elem_Teller"><ellipse cx="57" cy="420.5" fill="#F1F1F1" rx="8" ry="8" style="stroke:#181818;stroke-width:0.5;"/><path d="M57,428.5 L57,455.5 M44,436.5 L70,436.5 M57,455.5 L44,470.5 M57,455.5 L70,470.5 " fill="none" style="stroke:#181818;stroke-width:0.5;"/><text fill="#000000" font-family="sans-serif" font-size="14" lengthAdjust="spacing" textLength="38" x="38" y="484.9951">Teller</text></g><!--entity Client--><g id="elem_Client"><ellipse cx="57" cy="613.5" fill="#F1F1F1" rx="8" ry="8" style="stroke:#181818;stroke-width:0.5;"/><path d="M57,621.5 L57,648.5 M44,629.5 L70,629.5 M57,648.5 L44,663.5 M57,648.5 L70,663.5 " fill="none" style="stroke:#181818;stroke-width:0.5;"/><text fill="#000000" font-family="sans-serif" font-size="14" lengthAdjust="spacing" textLength="39" x="37.5" y="677.9951">Client</text></g><g id="elem_UC_Register"><ellipse cx="360.9095" cy="450.0819" fill="#F1F1F1" rx="95.9095" ry="21.5819" style="stroke:#181818;stroke-width:0.5;"/><text fill="#000000" font-family="sans-serif" font-size="14" lengthAdjust="spacing" textLength="155" x="283.4095" y="452.9286">Register in the system</text></g><g id="elem_UC_ManageQueues"><ellipse cx="361.1551" cy="103.031" fill="#F1F1F1" rx="78.1551" ry="18.031" style="stroke:#181818;stroke-width:0.5;"/><text fill="#000000" font-family="sans-serif" font-size="14" lengthAdjust="spacing" textLength="114" x="301.7659" y="106.6166">Manage Queues</text></g><g id="elem_UC_ResetQueue"><ellipse cx="361.1163" cy="194.2233" fill="#F1F1F1" rx="94.1163" ry="21.2233" style="stroke:#181818;stroke-width:0.5;"/><text fill="#000000" font-family="sans-serif" font-size="14" lengthAdjust="spacing" textLength="151" x="285.6163" y="197.0699">Reset Queue Number</text></g><g id="elem_UC_IncrementQueue"><ellipse cx="360.7877" cy="273.8575" fill="#F1F1F1" rx="107.2877" ry="23.8575" style="stroke:#181818;stroke-width:0.5;"/><text fill="#000000" font-family="sans-serif" font-size="14" lengthAdjust="spacing" textLength="180" x="270.7877" y="276.7042">Increment Queue Number</text></g><g id="elem_UC_AssignTeller"><ellipse cx="360.8093" cy="27.7619" fill="#F1F1F1" rx="96.8093" ry="21.7619" style="stroke:#181818;stroke-width:0.5;"/><text fill="#000000" font-family="sans-serif" font-size="14" lengthAdjust="spacing" textLength="157" x="282.3093" y="30.6085">Assign Teller to Queue</text></g><g id="elem_UC_AcceptInvitation"><ellipse cx="360.9095" cy="528.0819" fill="#F1F1F1" rx="95.9095" ry="21.5819" style="stroke:#181818;stroke-width:0.5;"/><text fill="#000000" font-family="sans-serif" font-size="14" lengthAdjust="spacing" textLength="155" x="283.4095" y="530.9286">Accept Teller Invitation</text></g><g id="elem_UC_TellerIncrementQueue"><ellipse cx="361.2348" cy="363.247" fill="#F1F1F1" rx="139.2348" ry="30.247" style="stroke:#181818;stroke-width:0.5;"/><text fill="#000000" font-family="sans-serif" font-size="14" lengthAdjust="spacing" textLength="248" x="237.2348" y="366.0936">Increment Assigned Queue Number</text></g><g id="elem_UC_ClientRegister"><ellipse cx="360.7932" cy="603.9586" fill="#F1F1F1" rx="85.2932" ry="19.4586" style="stroke:#181818;stroke-width:0.5;"/><text fill="#000000" font-family="sans-serif" font-size="14" lengthAdjust="spacing" textLength="131" x="295.2932" y="606.8053">Register for Queue</text></g><g id="elem_UC_AuthOAuth"><ellipse cx="360.9086" cy="682.0817" fill="#F1F1F1" rx="105.9086" ry="23.5817" style="stroke:#181818;stroke-width:0.5;"/><text fill="#000000" font-family="sans-serif" font-size="14" lengthAdjust="spacing" textLength="177" x="272.4086" y="684.9284">Authenticate using OAuth</text></g><g id="elem_UC_ReceiveToken"><ellipse cx="360.9604" cy="761.9921" fill="#F1F1F1" rx="95.4604" ry="21.4921" style="stroke:#181818;stroke-width:0.5;"/><text fill="#000000" font-family="sans-serif" font-size="14" lengthAdjust="spacing" textLength="154" x="283.9604" y="764.8388">Receive Queue Token</text></g><!--link Owner to UC_Register--><g id="link_Owner_UC_Register"><path d="M76.89,232.04 C102.93,280.56 154.4,363.72 222,410 C240.32,422.54 262.58,431.2 283.83,437.15 " fill="none" id="Owner-UC_Register" style="stroke:#181818;stroke-width:1.0;"/></g><!--link Client to UC_Register--><g id="link_Client_UC_Register"><path d="M76.6,619.49 C104.59,585.68 160.8,523.61 222,489 C241.83,477.79 265.11,469.61 286.85,463.72 " fill="none" id="Client-UC_Register" style="stroke:#181818;stroke-width:1.0;"/></g><!--link Teller to UC_Register--><g id="link_Teller_UC_Register"><path d="M76.44,450 C113.13,450 197.54,450 264.79,450 " fill="none" id="Teller-UC_Register" style="stroke:#181818;stroke-width:1.0;"/></g><!--link Owner to UC_ManageQueues--><g id="link_Owner_UC_ManageQueues"><path d="M108.29,177.41 C118.12,174.23 128.37,170.97 138,168 C197.28,149.69 265.87,129.81 310.94,116.92 " fill="none" id="Owner-UC_ManageQueues" style="stroke:#181818;stroke-width:1.0;"/></g><!--link Owner to UC_ResetQueue--><g id="link_Owner_UC_ResetQueue"><path d="M108.21,194 C151.31,194 214.59,194 266.92,194 " fill="none" id="Owner-UC_ResetQueue" style="stroke:#181818;stroke-width:1.0;"/></g><!--link Owner to UC_IncrementQueue--><g id="link_Owner_UC_IncrementQueue"><path d="M108.15,223.36 C117.82,228.15 128.05,232.63 138,236 C177.81,249.48 223.34,258.34 262.75,264.08 " fill="none" id="Owner-UC_IncrementQueue" style="stroke:#181818;stroke-width:1.0;"/></g><!--link Owner to UC_AssignTeller--><g id="link_Owner_UC_AssignTeller"><path d="M98.12,155.75 C129.6,127.62 175.7,90.35 222,67 C242.56,56.63 266.28,48.66 288.19,42.71 " fill="none" id="Owner-UC_AssignTeller" style="stroke:#181818;stroke-width:1.0;"/></g><!--link Teller to UC_AcceptInvitation--><g id="link_Teller_UC_AcceptInvitation"><path d="M76.44,454.76 C119.4,465.86 227.82,493.86 297.46,511.85 " fill="none" id="Teller-UC_AcceptInvitation" style="stroke:#181818;stroke-width:1.0;"/></g><!--link Teller to UC_TellerIncrementQueue--><g id="link_Teller_UC_TellerIncrementQueue"><path d="M76.04,443.88 C92.2,438.45 116.6,430.41 138,424 C182.03,410.8 231.3,397.15 272.22,386.12 " fill="none" id="Teller-UC_TellerIncrementQueue" style="stroke:#181818;stroke-width:1.0;"/></g><!--link Client to UC_ClientRegister--><g id="link_Client_UC_ClientRegister"><path d="M76.89,640.56 C117.89,635.27 216.91,622.48 286.22,613.53 " fill="none" id="Client-UC_ClientRegister" style="stroke:#181818;stroke-width:1.0;"/></g><!--link Client to UC_AuthOAuth--><g id="link_Client_UC_AuthOAuth"><path d="M76.89,645.44 C114.6,650.31 201.38,661.52 268.99,670.25 " fill="none" id="Client-UC_AuthOAuth" style="stroke:#181818;stroke-width:1.0;"/></g><!--link Client to UC_ReceiveToken--><g id="link_Client_UC_ReceiveToken"><path d="M76.7,653.49 C106.65,669.98 167.54,702.21 222,723 C245.49,731.97 271.93,739.93 295.33,746.28 " fill="none" id="Client-UC_ReceiveToken" style="stroke:#181818;stroke-width:1.0;"/></g><!--link UC_ManageQueues to UC_ResetQueue--><g id="link_UC_ManageQueues_UC_ResetQueue"><path d="M361,121.22 C361,136.14 361,151.25 361,166.89 " fill="none" id="UC_ManageQueues-to-UC_ResetQueue" style="stroke:#181818;stroke-width:1.0;stroke-dasharray:7.0,7.0;"/><polygon fill="#181818" points="361,172.89,365,163.89,361,167.89,357,163.89,361,172.89" style="stroke:#181818;stroke-width:1.0;"/><text fill="#000000" font-family="sans-serif" font-size="13" lengthAdjust="spacing" textLength="52" x="323.5" y="151.5669">includes</text></g><!--link UC_ManageQueues to UC_IncrementQueue--><g id="link_UC_ManageQueues_UC_IncrementQueue"><path d="M307.8,116.2 C236.63,136.36 124.37,178.47 170,234.5 C190.42,259.57 216.2533,270.5047 248.0633,275.5247 " fill="none" id="UC_ManageQueues-to-UC_IncrementQueue" style="stroke:#181818;stroke-width:1.0;stroke-dasharray:7.0,7.0;"/><polygon fill="#181818" points="253.99,276.46,245.7236,271.106,249.0511,275.6806,244.4765,279.0082,253.99,276.46" style="stroke:#181818;stroke-width:1.0;"/><text fill="#000000" font-family="sans-serif" font-size="13" lengthAdjust="spacing" textLength="52" x="139" y="230.5669">includes</text></g><!--link UC_AssignTeller to UC_AcceptInvitation--><g id="link_UC_AssignTeller_UC_AcceptInvitation"><path d="M273.62,37.6 C254.48,43.47 235.84,52.66 222,67 C134.45,157.73 157.78,207.32 170,298.5 C181.66,385.49 160.16,426.72 222,489 C236.3,503.41 249.7217,510.8802 269.2417,516.7202 " fill="none" id="UC_AssignTeller-to-UC_AcceptInvitation" style="stroke:#181818;stroke-width:1.0;stroke-dasharray:7.0,7.0;"/><polygon fill="#181818" points="274.99,518.44,267.5141,512.0282,270.1998,517.0069,265.2211,519.6925,274.99,518.44" style="stroke:#181818;stroke-width:1.0;"/><text fill="#000000" font-family="sans-serif" font-size="13" lengthAdjust="spacing" textLength="52" x="139" y="294.5669">includes</text></g><!--SRC=[TLCnRiCm3Dpz2i9JCgGFw50Wo9IX3LAaSw7AZ2FKfWjBIj7VLnPjMPATJURngEETtE3LWEcWL_NDGALwb4PrL1H2cgw7qozX3q93oQVDlceLRSiHlc3JZ3WV9-3GA2JZ0JwMHM4rIg4HodUibJQEfmZC3K7_kQ-s7Be_3fyJ6X5U1OaQuMpHefxwkCYrUBP6mvtmPjil9odCTOW7vkuZoHxRGUaQ8w3CccbxhLLDq_REFTymqHXbCE98YJzcuXpfhemOd0uiZy_rDP4y6QjLjJpveUPW-jN5a-ZbW8BjisBhmY6Zf308LYkguJJKWc9tzeNu4edgFYO5b-uRQRRVGxvM51l_dBQmsoMHRrZBiixBBUhPdEH9v5U4z5CWDon5aomp5Ol4Cdmza6p5pFmCdIrUE1ExcQqEJo_fol0CfIBPsChzFW-wKvqBHcp4oCZtJpd_]--></g></svg>